<?xml version="1.0" standalone="no"?><svg xmlns="http://www.w3.org/2000/svg" viewBox="0 0 1440 320"><path fill="rgba(39, 48, 54, 0.9)" fill-opacity="1" d="M0,288L30,282.7C60,277,120,267,180,256C240,245,300,235,360,234.7C420,235,480,245,540,229.3C600,213,660,171,720,138.7C780,107,840,85,900,101.3C960,117,1020,171,1080,202.7C1140,235,1200,245,1260,213.3C1320,181,1380,107,1410,69.3L1440,32L1440,0L1410,0C1380,0,1320,0,1260,0C1200,0,1140,0,1080,0C1020,0,960,0,900,0C840,0,780,0,720,0C660,0,600,0,540,0C480,0,420,0,360,0C300,0,240,0,180,0C120,0,60,0,30,0L0,0Z"></path></svg>